<?xml version="1.0" encoding="iso-8859-1"?>
<!-- Generator: Adobe Illustrator 16.0.0, SVG Export Plug-In . SVG Version: 6.00 Build 0)  -->
<!DOCTYPE svg PUBLIC "-//W3C//DTD SVG 1.1//EN" "http://www.w3.org/Graphics/SVG/1.1/DTD/svg11.dtd">
<svg version="1.1" id="Capa_1" xmlns="http://www.w3.org/2000/svg" xmlns:xlink="http://www.w3.org/1999/xlink" x="0px" y="0px"
	 width="763.955px" height="763.955px" viewBox="0 0 763.955 763.955" style="enable-background:new 0 0 763.955 763.955;"
	 xml:space="preserve">
<g>
	<g id="_x33_9">
		<g>
			<path d="M171.794,498.92l242.778-330.901c8.694-11.908,6.143-28.635-5.765-37.423c-11.907-8.742-28.682-6.143-37.423,5.717
				l-242.73,330.949c-8.742,11.859-6.19,28.587,5.717,37.376C146.279,513.379,163.053,510.732,171.794,498.92z M220.652,568.001
				c11.908,8.742,28.682,6.144,37.423-5.765l242.778-330.854c8.741-11.955,6.143-28.729-5.765-37.47
				c-11.907-8.694-28.635-6.095-37.424,5.765L214.888,530.578C206.193,542.438,208.745,559.307,220.652,568.001z M543.994,263.042
				L301.216,593.942c-8.742,11.907-6.19,28.635,5.717,37.423c11.907,8.742,28.682,6.096,37.423-5.765l242.778-330.854
				c8.741-11.907,6.189-28.682-5.765-37.518C569.462,248.535,552.735,251.134,543.994,263.042z M97.09,536.248
				c-10.018-7.276-20.885-2.787-21.027,6.663c-0.236,12.946,0.189,193.73,0.331,204.835c0.094,10.017,11.577,18.522,21.216,15.64
				c14.695-4.631,186.454-58.308,195.006-61.049c10.679-3.354,9.309-15.734,0.236-22.396
				C285.765,674.789,107.249,543.714,97.09,536.248z M664.91,118.972L519.376,12.089C499.294-2.653,475.29-4.118,465.84,8.829
				l-34.398,46.873c-9.451,12.853-0.851,35.392,19.23,50.134l145.535,106.788c20.081,14.743,44.085,16.208,53.535,3.355
				l34.352-46.874C693.592,156.111,684.992,133.714,664.91,118.972z"/>
		</g>
	</g>
</g>
<g>
</g>
<g>
</g>
<g>
</g>
<g>
</g>
<g>
</g>
<g>
</g>
<g>
</g>
<g>
</g>
<g>
</g>
<g>
</g>
<g>
</g>
<g>
</g>
<g>
</g>
<g>
</g>
<g>
</g>
</svg>
